<svg width="24" height="24" viewBox="0 0 24 24" fill="none" xmlns="http://www.w3.org/2000/svg">
<path d="M20 19.9999C20 20.5522 19.5523 20.9999 19 20.9999H5C4.44772 20.9999 4 20.5522 4 19.9999V10.9999H1L11.3273 1.61138C11.7087 1.26463 12.2913 1.26463 12.6727 1.61138L23 10.9999H20V19.9999ZM18 18.9999V9.15733L12 3.70278L6 9.15733V18.9999H18ZM12 16.9999L8.64124 13.6411C7.76256 12.7624 7.76256 11.3378 8.64124 10.4591C9.51992 9.58044 10.9445 9.58044 11.8232 10.4591L12 10.6359L12.1768 10.4591C13.0555 9.58044 14.4801 9.58044 15.3588 10.4591C16.2374 11.3378 16.2374 12.7624 15.3588 13.6411L12 16.9999Z" fill="white"/>
</svg>
