<svg width="24" height="24" viewBox="0 0 24 24" fill="none" xmlns="http://www.w3.org/2000/svg">
<path d="M19.4654 5.13242C19.4654 5.13242 21.1306 4.48314 20.9918 6.05998C20.9455 6.70927 20.5293 8.98177 20.2055 11.4398L19.0954 18.7211C19.0954 18.7211 19.0029 19.7878 18.1703 19.9733C17.3377 20.1588 16.0889 19.324 15.8576 19.1385C15.6726 18.9994 12.3886 16.9123 11.2323 15.892C10.9085 15.6138 10.5384 15.0572 11.2785 14.408L16.1352 9.77021C16.6902 9.21367 17.2453 7.9151 14.9326 9.49194L8.45705 13.8978C8.45705 13.8978 7.71699 14.3616 6.3294 13.9442L3.32289 13.0166C3.32289 13.0166 2.2128 12.321 4.10921 11.6253C8.73459 9.44553 14.4238 7.2194 19.4654 5.13242Z" fill="url(#paint0_linear_8108_216)"/>
<defs>
<linearGradient id="paint0_linear_8108_216" x1="3" y1="20" x2="22.2843" y2="18.1109" gradientUnits="userSpaceOnUse">
<stop stop-color="#496BE3"/>
<stop offset="1" stop-color="#3EB9FF"/>
</linearGradient>
</defs>
</svg>
