<svg width="28" height="55" viewBox="0 0 28 55" fill="none" xmlns="http://www.w3.org/2000/svg">
<g filter="url(#filter0_bdd_5011_1861)">
<path d="M12 40C12.0001 33.3333 12.0001 22.8 12 12C12 26 29 26 29 26C29 26 12 26 12 40Z" fill="white" fill-opacity="0.7" shape-rendering="crispEdges"/>
<path d="M25.151 26C23.7239 26.2577 22.0369 26.6811 20.3465 27.3771C18.1806 28.269 15.9916 29.6158 14.3428 31.6525C13.5462 32.6366 12.88 33.7766 12.4033 35.095C12.4033 29.949 12.4033 23.5879 12.4033 16.905C12.88 18.2234 13.5462 19.3634 14.3428 20.3475C15.9916 22.3842 18.1806 23.731 20.3465 24.6229C22.0369 25.3189 23.7239 25.7423 25.151 26Z" stroke="url(#paint0_linear_5011_1861)" stroke-width="0.806452" shape-rendering="crispEdges"/>
</g>
<defs>
<filter id="filter0_bdd_5011_1861" x="0.709677" y="0.709677" width="42.8065" height="53.8065" filterUnits="userSpaceOnUse" color-interpolation-filters="sRGB">
<feFlood flood-opacity="0" result="BackgroundImageFix"/>
<feGaussianBlur in="BackgroundImageFix" stdDeviation="5.64516"/>
<feComposite in2="SourceAlpha" operator="in" result="effect1_backgroundBlur_5011_1861"/>
<feColorMatrix in="SourceAlpha" type="matrix" values="0 0 0 0 0 0 0 0 0 0 0 0 0 0 0 0 0 0 127 0" result="hardAlpha"/>
<feOffset dx="4.83871" dy="4.83871"/>
<feGaussianBlur stdDeviation="4.83871"/>
<feComposite in2="hardAlpha" operator="out"/>
<feColorMatrix type="matrix" values="0 0 0 0 0.501961 0 0 0 0 0.588235 0 0 0 0 0.670588 0 0 0 0.25 0"/>
<feBlend mode="normal" in2="effect1_backgroundBlur_5011_1861" result="effect2_dropShadow_5011_1861"/>
<feColorMatrix in="SourceAlpha" type="matrix" values="0 0 0 0 0 0 0 0 0 0 0 0 0 0 0 0 0 0 127 0" result="hardAlpha"/>
<feOffset dx="-3.22581" dy="-3.22581"/>
<feGaussianBlur stdDeviation="4.03226"/>
<feComposite in2="hardAlpha" operator="out"/>
<feColorMatrix type="matrix" values="0 0 0 0 1 0 0 0 0 1 0 0 0 0 1 0 0 0 0.8 0"/>
<feBlend mode="normal" in2="effect2_dropShadow_5011_1861" result="effect3_dropShadow_5011_1861"/>
<feBlend mode="normal" in="SourceGraphic" in2="effect3_dropShadow_5011_1861" result="shape"/>
</filter>
<linearGradient id="paint0_linear_5011_1861" x1="12" y1="26" x2="29.0074" y2="25.7283" gradientUnits="userSpaceOnUse">
<stop stop-color="white"/>
<stop offset="1" stop-color="white" stop-opacity="0"/>
</linearGradient>
</defs>
</svg>
