<svg width="171" height="303" viewBox="0 0 171 303" fill="none" xmlns="http://www.w3.org/2000/svg">
<rect x="-5.5" y="5.5" width="160" height="292" transform="matrix(-1 0 0 1 160 0)" stroke="url(#paint0_linear_5011_807)" stroke-opacity="0.2" stroke-width="11"/>
<g filter="url(#filter0_f_5011_807)">
<path d="M71.0822 33.1734C71.1602 33.1734 71.2296 33.1387 71.2296 33.0867C71.2296 33.0347 72.0965 33 73.6569 33C75.2174 33 76.0843 33.0347 76.0843 33.0867C76.0843 33.1387 76.1623 33.1734 76.2577 33.1734C76.3531 33.1734 76.5958 33.2601 76.7865 33.3728C76.9859 33.4768 77.3327 33.7716 77.5667 34.023C77.8008 34.2657 77.9915 34.5518 77.9915 34.6471C77.9915 34.7425 78.0349 34.8379 78.0782 34.8639C78.1302 34.8899 78.1649 34.9852 78.1649 35.0806C78.1649 35.176 78.2083 35.254 78.2516 35.254C78.3123 35.254 78.3383 37.1785 78.3383 40.8456C78.3383 44.4867 78.3643 46.4546 78.425 46.4806C78.477 46.5066 78.5117 46.6019 78.5117 46.6973C78.5117 46.7927 78.633 47.0527 78.7891 47.2868C78.9451 47.5122 79.1099 47.7376 79.1619 47.7809C79.2052 47.833 79.4306 47.9977 79.6647 48.1537C79.8901 48.3098 80.1328 48.4311 80.2022 48.4311C80.2715 48.4311 80.3495 48.4745 80.3756 48.5178C80.4016 48.5698 81.9533 48.6045 84.7535 48.6045C87.5536 48.6045 89.1054 48.5698 89.1314 48.5178C89.1574 48.4745 89.2355 48.4311 89.3048 48.4311C89.3742 48.4311 89.5996 48.3184 89.8076 48.1797C90.007 48.041 90.2758 47.8156 90.4058 47.6769C90.5272 47.5469 90.7179 47.2868 90.8132 47.1134C90.9173 46.9314 90.9953 46.6886 90.9953 46.5673C90.9953 46.4459 91.0386 46.3332 91.082 46.3072C91.1427 46.2812 91.1687 44.348 91.1687 40.7849C91.1687 36.6584 91.1947 35.2193 91.2814 34.9939C91.3334 34.8292 91.4808 34.5344 91.6021 34.3524C91.7235 34.1617 91.9749 33.8843 92.1656 33.7369C92.3564 33.5808 92.6511 33.3901 92.8158 33.3121C92.9805 33.2341 93.1886 33.1734 93.2753 33.1734C93.3533 33.1734 93.4227 33.1387 93.4227 33.0867C93.4227 33.0347 94.2896 33 95.85 33C97.4105 33 98.2774 33.0347 98.2774 33.0867C98.2774 33.1387 98.3554 33.1734 98.4508 33.1734C98.5462 33.1734 98.7715 33.2514 98.9536 33.3554C99.127 33.4508 99.4044 33.6589 99.5691 33.8062C99.7252 33.9623 99.9766 34.257 100.107 34.4738C100.245 34.6905 100.358 34.9506 100.358 35.0633C100.358 35.1673 100.401 35.254 100.445 35.254C100.505 35.254 100.531 41.3658 100.531 53.4159C100.531 64.2524 100.497 71.6385 100.453 71.7339C100.413 71.8062 100.336 71.9903 100.269 72.148L100.254 72.1847C100.193 72.3494 99.9939 72.6702 99.8205 72.9042C99.6211 73.147 99.3177 73.3984 99.0576 73.5284C98.8236 73.6498 98.5462 73.7451 98.4508 73.7451C98.3554 73.7451 98.2774 73.7885 98.2774 73.8318C98.2774 73.8838 97.4105 73.9185 95.85 73.9185C94.2896 73.9185 93.4227 73.8838 93.4227 73.8318C93.4227 73.7885 93.3446 73.7451 93.2493 73.7451C93.1539 73.7451 92.8938 73.6498 92.6684 73.5284C92.4344 73.4157 92.1743 73.251 92.0789 73.1643C91.9749 73.0776 91.7842 72.8349 91.6368 72.6181C91.4981 72.4014 91.3334 72.0893 91.2727 71.9246C91.1947 71.6992 91.1687 70.1388 91.1687 65.8822C91.1687 62.1371 91.1427 60.1172 91.082 60.0912C91.0386 60.0652 90.9953 59.9265 90.9953 59.7878C90.9953 59.6491 90.9606 59.5103 90.9086 59.4843C90.8653 59.4583 90.8219 59.3716 90.8219 59.2936C90.8219 59.2069 90.6312 58.9295 90.3885 58.6868C90.1544 58.4354 89.7643 58.1319 89.5215 58.0106C89.2788 57.8892 88.9407 57.7938 88.7413 57.7938C88.5506 57.7938 88.3945 57.7505 88.3945 57.7072C88.3945 57.6465 87.0942 57.6205 84.6668 57.6205C82.2654 57.6205 80.9217 57.6551 80.8957 57.7072C80.8697 57.7505 80.757 57.7938 80.6356 57.7938C80.5143 57.7938 80.2368 57.8805 80.0114 57.9846C79.7774 58.0973 79.4306 58.3487 79.2312 58.5481C79.0232 58.7561 78.7804 59.0509 78.6851 59.2069C78.5897 59.3543 78.5117 59.571 78.5117 59.6837C78.5117 59.7878 78.477 59.8918 78.425 59.9178C78.3643 59.9438 78.3383 61.9984 78.3383 65.8128C78.3383 69.6533 78.3123 71.6645 78.2516 71.6645C78.2083 71.6645 78.1649 71.7859 78.1649 71.9246C78.1649 72.0633 78.1302 72.1847 78.0782 72.1847C78.0349 72.1847 77.9915 72.2367 77.9915 72.2974C77.9915 72.3494 77.8788 72.5575 77.7488 72.7395C77.6188 72.9302 77.2807 73.2337 76.9946 73.4157C76.7085 73.5978 76.3877 73.7451 76.2837 73.7451C76.171 73.7451 76.0843 73.7885 76.0843 73.8318C76.0843 73.8838 75.2174 73.9185 73.6569 73.9185C72.0965 73.9185 71.2296 73.8838 71.2296 73.8318C71.2296 73.7885 71.1342 73.7451 71.0128 73.7451C70.8915 73.7451 70.6487 73.6584 70.458 73.5544C70.276 73.4417 70.0332 73.277 69.9205 73.1816C69.7992 73.0863 69.5911 72.8349 69.4437 72.6181C69.305 72.4014 69.1403 72.0893 69.0796 71.9246C69.0016 71.6905 68.9756 67.4166 68.9756 53.4593C68.9756 39.2678 69.0016 35.228 69.0883 34.9939C69.1403 34.8292 69.305 34.5171 69.4351 34.3004C69.5738 34.0836 69.8252 33.8149 69.9985 33.6935C70.1806 33.5722 70.458 33.4075 70.6227 33.3208C70.7874 33.2427 70.9955 33.1734 71.0822 33.1734Z" stroke="white" stroke-width="3.09"/>
<path d="M89.0881 93.3166C89.6343 93.3166 89.9551 93.2819 89.9637 93.2212C89.9637 93.1605 90.4839 93.1519 91.6282 93.1779C92.5471 93.2039 93.6741 93.2472 94.1336 93.2732C94.6104 93.2993 94.9832 93.3513 94.9832 93.4033C94.9832 93.4553 95.1999 93.49 95.46 93.49C95.7201 93.49 95.9541 93.5247 95.9801 93.5767C96.0061 93.6287 96.1969 93.6634 96.4136 93.6634C96.6303 93.6634 96.821 93.698 96.8471 93.7501C96.8731 93.8021 97.0291 93.8367 97.1938 93.8367C97.3585 93.8367 97.5146 93.8714 97.5406 93.9234C97.5666 93.9755 97.7053 94.0101 97.844 94.0101C97.9827 94.0101 98.1214 94.0448 98.1474 94.0968C98.1734 94.1488 98.2861 94.1835 98.4075 94.1835C98.5289 94.1835 98.6416 94.2182 98.6676 94.2702C98.6936 94.3222 98.8063 94.3569 98.9277 94.3569C99.049 94.3569 99.1617 94.3916 99.1877 94.4436C99.2137 94.4956 99.3004 94.5303 99.3785 94.5303C99.4651 94.5303 99.8466 94.6863 100.228 94.877C100.609 95.0678 100.965 95.2238 101.008 95.2238C101.052 95.2238 101.26 95.3365 101.459 95.4665C101.658 95.5966 102.04 95.8393 102.309 96.004C102.569 96.1688 102.785 96.3335 102.785 96.3768C102.785 96.4115 102.837 96.4375 102.889 96.4375C102.95 96.4375 103.236 96.6196 103.514 96.8449C103.791 97.079 104.285 97.5125 104.597 97.8246C104.909 98.1367 105.334 98.5875 105.525 98.8215C105.724 99.0643 106.08 99.5497 106.314 99.9052C106.548 100.261 106.912 100.911 107.12 101.336C107.328 101.76 107.536 102.211 107.579 102.333C107.623 102.454 107.692 102.619 107.736 102.705C107.779 102.783 107.814 102.931 107.814 103.026C107.814 103.121 107.857 103.217 107.9 103.243C107.944 103.269 107.987 103.425 107.987 103.59C107.987 103.754 108.03 103.91 108.074 103.936C108.117 103.962 108.16 104.118 108.16 104.283C108.16 104.448 108.204 104.587 108.247 104.587C108.299 104.587 108.334 104.873 108.334 105.28C108.334 105.688 108.368 105.974 108.42 105.974C108.472 105.974 108.507 106.494 108.507 107.361C108.507 108.228 108.472 108.748 108.42 108.748C108.368 108.748 108.334 109.034 108.334 109.441C108.334 109.849 108.299 110.135 108.247 110.135C108.204 110.135 108.16 110.334 108.16 110.568C108.16 110.811 108.117 111.002 108.074 111.002C108.03 111.002 107.987 111.149 107.987 111.331C107.987 111.505 107.909 111.869 107.814 112.129C107.718 112.389 107.64 112.692 107.64 112.805C107.64 112.909 107.597 113.013 107.553 113.039C107.51 113.065 107.467 113.16 107.467 113.256C107.467 113.351 107.423 113.429 107.38 113.429C107.337 113.429 107.293 113.498 107.293 113.585C107.293 113.663 107.215 113.897 107.12 114.105C107.025 114.305 106.947 114.504 106.947 114.556C106.947 114.608 106.877 114.79 106.782 114.972C106.695 115.146 106.487 115.562 106.331 115.9C106.175 116.238 105.811 116.897 105.534 117.374C105.247 117.85 104.814 118.535 104.571 118.891C104.329 119.246 103.93 119.827 103.678 120.174C103.427 120.512 103.158 120.815 103.089 120.841C103.02 120.867 102.959 120.945 102.959 121.015C102.959 121.084 102.621 121.509 102.205 121.951C101.788 122.384 101.069 123.121 100.618 123.572C100.159 124.023 99.6299 124.534 99.4391 124.708C99.2571 124.881 98.7716 125.289 98.3642 125.601C97.9567 125.921 97.5666 126.225 97.4972 126.285C97.4279 126.346 97.2285 126.485 97.0638 126.606C96.8991 126.719 96.743 126.84 96.717 126.866C96.691 126.892 96.3789 127.109 96.0235 127.352C95.668 127.595 95.2086 127.881 95.0005 128.002C94.8011 128.115 94.6364 128.236 94.6364 128.279C94.6364 128.314 94.5844 128.34 94.5237 128.34C94.4717 128.34 94.3243 128.409 94.203 128.487C94.0903 128.574 93.6568 128.826 93.2493 129.051C92.8419 129.276 92.1657 129.632 91.7322 129.849C91.2988 130.057 90.6139 130.386 90.1891 130.585C89.773 130.785 89.3742 130.941 89.3049 130.941C89.2355 130.941 89.1575 130.984 89.1315 131.028C89.1055 131.071 88.9928 131.114 88.8714 131.114C88.75 131.114 88.6373 131.14 88.62 131.184C88.6027 131.218 88.1865 131.374 87.6924 131.539C87.1983 131.695 86.7215 131.86 86.6348 131.903C86.5567 131.946 86.4094 131.981 86.314 131.981C86.2186 131.981 86.1233 132.024 86.0973 132.068C86.0713 132.111 85.9672 132.155 85.8545 132.155C85.7505 132.155 85.5424 132.207 85.4037 132.276C85.2564 132.354 85.057 132.389 84.9443 132.371C84.8402 132.345 84.7535 132.371 84.7535 132.415C84.7535 132.458 84.5975 132.501 84.4068 132.501C84.2161 132.501 84.06 132.545 84.06 132.588C84.06 132.631 83.8866 132.675 83.6699 132.675C83.4532 132.675 83.2624 132.718 83.2364 132.761C83.2104 132.805 82.9937 132.848 82.7596 132.848C82.5169 132.848 82.3262 132.891 82.3262 132.935C82.3262 132.987 82.0488 133.021 81.676 133.021C81.3206 133.021 81.0085 133.065 80.9825 133.108C80.9564 133.16 80.4796 133.195 79.8121 133.195C79.1186 133.195 78.6851 133.229 78.6851 133.282C78.6851 133.334 78.2863 133.351 77.5755 133.325C76.9686 133.299 76.1017 133.255 75.6509 133.229C75.2001 133.203 74.784 133.143 74.7406 133.099C74.6973 133.056 74.4286 133.021 74.1511 133.021C73.8824 133.021 73.6397 132.978 73.6137 132.935C73.5876 132.891 73.3536 132.848 73.0935 132.848C72.8334 132.848 72.6167 132.805 72.6167 132.761C72.6167 132.718 72.4953 132.675 72.3566 132.675C72.2092 132.675 72.0965 132.631 72.0965 132.588C72.0965 132.545 71.9405 132.501 71.7498 132.501C71.5591 132.501 71.403 132.475 71.403 132.441C71.403 132.397 71.3337 132.363 71.247 132.363C71.1689 132.354 70.8655 132.259 70.5794 132.155C70.2934 132.05 69.9206 131.903 69.7559 131.834C69.5912 131.756 69.1404 131.548 68.7589 131.357C68.3775 131.175 67.944 130.958 67.8053 130.871C67.6579 130.793 67.3892 130.629 67.1985 130.516C67.0077 130.395 66.5569 130.074 66.2015 129.805C65.8461 129.536 65.3519 129.12 65.1179 128.886C64.8751 128.661 64.4763 128.236 64.2163 127.95C63.9562 127.664 63.5227 127.1 63.254 126.693C62.9766 126.285 62.5605 125.566 62.3264 125.089C62.0923 124.612 61.8496 124.049 61.7889 123.832C61.7282 123.615 61.6415 123.364 61.6068 123.269C61.5635 123.173 61.4941 122.957 61.4421 122.792C61.3901 122.627 61.3468 122.358 61.3468 122.211C61.3468 122.055 61.3034 121.925 61.2601 121.925C61.2081 121.925 61.1734 121.665 61.1734 121.318C61.1734 120.971 61.1387 120.711 61.0867 120.711C61.0347 120.711 61 120.104 61 119.064C61 118.024 61.0347 117.417 61.0867 117.417C61.1387 117.417 61.1734 117.157 61.1734 116.81C61.1734 116.463 61.2081 116.203 61.2601 116.203C61.3034 116.203 61.3468 116.012 61.3468 115.77C61.3468 115.536 61.3901 115.336 61.4335 115.336C61.4768 115.336 61.5202 115.198 61.5202 115.033C61.5202 114.868 61.5635 114.712 61.6068 114.686C61.6502 114.66 61.6935 114.539 61.6935 114.409C61.6935 114.27 61.7802 113.932 61.8756 113.646C61.9709 113.36 62.127 112.961 62.2224 112.762C62.309 112.553 62.3871 112.354 62.3871 112.302C62.3871 112.25 62.4651 112.033 62.5691 111.808C62.6645 111.574 62.7858 111.322 62.8292 111.244C62.8725 111.158 62.9419 111.019 62.9852 110.941C63.0286 110.854 63.1153 110.664 63.176 110.525C63.2366 110.386 63.358 110.169 63.436 110.048C63.5141 109.927 63.7135 109.563 63.8868 109.225C64.0602 108.886 64.2856 108.522 64.381 108.401C64.485 108.28 64.6324 108.063 64.7104 107.924C64.7798 107.785 64.9792 107.473 65.1439 107.231C65.3086 106.997 65.5513 106.658 65.6727 106.494C65.7941 106.329 65.9501 106.13 66.0195 106.06C66.0888 105.991 66.2449 105.792 66.3662 105.627C66.4876 105.462 66.609 105.306 66.635 105.28C66.661 105.254 66.9297 104.942 67.2418 104.587C67.5539 104.231 68.1954 103.555 68.6722 103.069C69.1577 102.593 69.9119 101.899 70.3627 101.526C70.8135 101.154 71.455 100.625 71.7931 100.356C72.1226 100.087 72.4086 99.8358 72.4173 99.8011C72.4346 99.7578 72.4867 99.7318 72.53 99.7318C72.5734 99.7318 72.7988 99.6104 73.0242 99.4544C73.2582 99.2983 73.501 99.1249 73.5703 99.0556C73.6397 98.9862 73.7957 98.8822 73.9171 98.8215C74.0384 98.7608 74.3245 98.5788 74.5586 98.4227C74.8013 98.258 75.2088 98.0066 75.4689 97.8506C75.7376 97.7032 76.6912 97.2091 77.6015 96.7583C78.5117 96.2988 79.5087 95.8133 79.8295 95.6659C80.1589 95.5186 80.4796 95.3972 80.549 95.3972C80.6184 95.3972 80.6964 95.3625 80.7224 95.3105C80.7484 95.2585 80.8437 95.2238 80.9391 95.2238C81.0345 95.2238 81.1818 95.1891 81.2599 95.1458C81.3466 95.1024 81.5113 95.0331 81.6326 94.9897C81.754 94.9377 81.9447 94.8597 82.0661 94.8077C82.1875 94.7643 82.4562 94.6777 82.6729 94.617C82.8897 94.565 83.1324 94.4783 83.2104 94.4349C83.2971 94.3916 83.4792 94.3569 83.6266 94.3569C83.7653 94.3569 83.8866 94.3222 83.8866 94.2702C83.8866 94.2182 84.0253 94.1835 84.1901 94.1835C84.3548 94.1835 84.5108 94.1488 84.5368 94.0968C84.5628 94.0448 84.7275 94.0101 84.9096 94.0101C85.0916 94.0101 85.2737 93.9755 85.3257 93.9321C85.3691 93.8888 85.5771 93.8281 85.7938 93.8021C86.0106 93.7674 86.366 93.724 86.5914 93.7067C86.8255 93.6807 87.0075 93.6287 87.0075 93.5767C87.0075 93.5247 87.2676 93.49 87.6144 93.49C87.9611 93.49 88.2212 93.4553 88.2212 93.4033C88.2212 93.3513 88.568 93.3166 89.0881 93.3166Z" stroke="white" stroke-width="3.55436"/>
<path d="M71.3686 152.756C71.4813 152.756 71.5767 152.721 71.5767 152.669C71.5767 152.609 76.024 152.583 84.7538 152.583C93.449 152.583 97.9483 152.609 97.9743 152.669C98.0004 152.721 98.087 152.756 98.1651 152.756C98.2518 152.756 98.4251 152.843 98.5552 152.955C98.6852 153.059 98.928 153.25 99.0927 153.389C99.2661 153.519 99.5001 153.822 99.6215 154.056C99.7429 154.299 99.8382 154.568 99.8382 154.663C99.8382 154.758 99.8816 154.854 99.9249 154.88C99.9769 154.906 100.012 155.721 100.012 157.047C100.012 158.408 99.9769 159.171 99.9249 159.171C99.8816 159.171 99.8382 159.24 99.8382 159.327C99.8382 159.405 99.7775 159.631 99.7168 159.821C99.6475 160.012 99.4568 160.324 99.2921 160.515C99.1273 160.706 98.8413 160.974 98.6592 161.104C98.4772 161.234 98.1477 161.39 97.931 161.442C97.6883 161.503 96.4226 161.555 94.5934 161.572C92.8595 161.59 91.6112 161.642 91.5592 161.685C91.5158 161.737 91.4031 161.772 91.2991 161.772C91.2037 161.772 90.987 161.885 90.8223 162.015C90.6576 162.145 90.4062 162.37 90.2588 162.517C90.1201 162.656 89.912 162.951 89.808 163.168C89.704 163.376 89.5826 163.688 89.5306 163.852C89.4612 164.069 89.4352 168.074 89.4352 191.204L89.2098 191.681C89.0798 191.941 88.8977 192.27 88.7937 192.4C88.6983 192.539 88.4469 192.764 88.2475 192.903C88.0395 193.042 87.8314 193.154 87.7881 193.154C87.7447 193.154 87.632 193.189 87.554 193.232C87.4673 193.276 87.2592 193.354 87.0945 193.406C86.9038 193.458 86.0022 193.501 84.7365 193.501C83.4448 193.501 82.6559 193.466 82.6299 193.414C82.6039 193.371 82.4912 193.328 82.3698 193.328C82.2485 193.328 81.945 193.224 81.7023 193.102C81.4509 192.981 81.1475 192.799 81.0348 192.695C80.9221 192.591 80.7053 192.296 80.5406 192.053C80.3759 191.802 80.2459 191.516 80.2459 191.42C80.2459 191.325 80.2025 191.23 80.1592 191.204C80.0985 191.178 80.0725 186.496 80.0725 177.42C80.0725 168.317 80.0465 163.679 79.9858 163.679C79.9425 163.679 79.8991 163.618 79.8991 163.549C79.8991 163.48 79.7777 163.211 79.6304 162.968C79.4743 162.717 79.3096 162.465 79.2576 162.422C79.2056 162.37 78.9802 162.205 78.7548 162.049C78.5207 161.893 78.2693 161.772 78.1913 161.772C78.1046 161.772 77.9919 161.737 77.9485 161.694C77.8965 161.642 76.6828 161.59 74.9143 161.572C73.2932 161.555 71.8281 161.503 71.6634 161.468C71.4987 161.425 71.1866 161.286 70.9699 161.148C70.7531 161.009 70.4584 160.749 70.311 160.576C70.1636 160.402 69.9556 160.09 69.8515 159.891C69.7562 159.683 69.6695 159.362 69.6695 159.171C69.6695 158.98 69.6261 158.824 69.5828 158.824C69.5308 158.824 69.4961 158.191 69.4961 157.09C69.4961 155.99 69.5308 155.357 69.5828 155.357C69.6261 155.357 69.6695 155.166 69.6695 154.923C69.6695 154.646 69.7388 154.368 69.8515 154.169C69.9469 153.987 70.285 153.597 70.5884 153.302C70.9699 152.938 71.2213 152.756 71.3686 152.756Z" stroke="white" stroke-width="3.09"/>
<path d="M79.2835 213.208C79.5002 213.069 79.7863 212.913 79.9337 212.861C80.1244 212.792 81.6242 212.757 84.8231 212.748C87.8226 212.74 89.4524 212.766 89.4784 212.826C89.5045 212.878 89.5998 212.913 89.6952 212.913C89.7905 212.913 89.9552 212.965 90.0593 213.026C90.1633 213.078 90.4234 213.286 90.6228 213.476C90.8308 213.667 91.1082 214.04 91.2469 214.3C91.377 214.56 91.5417 214.95 91.6024 215.167C91.6631 215.384 91.7498 215.592 91.7931 215.644C91.8365 215.696 91.8625 215.817 91.8625 215.93C91.8625 216.034 91.8971 216.138 91.9492 216.164C92.0012 216.19 92.0359 216.277 92.0359 216.363C92.0359 216.441 92.1139 216.675 92.2092 216.883C92.3046 217.083 92.3826 217.326 92.3826 217.421C92.3826 217.516 92.4173 217.612 92.4693 217.638C92.5213 217.664 92.556 217.776 92.556 217.898C92.556 218.019 92.5907 218.184 92.634 218.27C92.6774 218.348 92.7467 218.513 92.7987 218.635C92.8508 218.756 92.9721 219.085 93.0675 219.371C93.1715 219.658 93.2495 219.961 93.2495 220.048C93.2495 220.126 93.2842 220.195 93.3362 220.195C93.3882 220.195 93.4229 220.316 93.4229 220.455C93.4229 220.594 93.4576 220.715 93.5096 220.715C93.5616 220.715 93.5963 220.793 93.5963 220.889C93.5963 220.984 93.631 221.131 93.6743 221.218C93.7177 221.296 93.9604 222.007 94.2118 222.796C94.4632 223.585 94.6973 224.261 94.7406 224.313C94.784 224.365 94.81 224.504 94.81 224.642C94.81 224.772 94.8447 224.876 94.8967 224.876C94.9487 224.876 94.9834 224.954 94.9834 225.05C94.9834 225.145 95.018 225.24 95.0701 225.266C95.1221 225.293 95.1568 225.397 95.1568 225.509C95.1568 225.613 95.2088 225.839 95.2695 226.012C95.3215 226.185 95.3995 226.367 95.4428 226.402C95.4775 226.446 95.5035 226.567 95.5035 226.68C95.5035 226.784 95.5382 226.888 95.5902 226.914C95.6422 226.94 95.6769 227.035 95.6769 227.13C95.6769 227.226 95.7116 227.382 95.7636 227.477C95.8156 227.573 95.885 227.729 95.937 227.824C95.989 227.919 96.0237 228.075 96.0237 228.171C96.0237 228.266 96.0584 228.361 96.1104 228.387C96.1624 228.413 96.1971 228.526 96.1971 228.647C96.1971 228.769 96.2317 228.882 96.2838 228.908C96.3358 228.934 96.3704 229.046 96.3704 229.168C96.3704 229.289 96.4051 229.384 96.4571 229.384C96.5091 229.384 96.5438 229.454 96.5438 229.54C96.5438 229.618 96.6305 229.939 96.7345 230.251C96.8299 230.563 96.9426 230.893 96.986 230.988C97.0206 231.084 97.0987 231.318 97.1593 231.508C97.22 231.699 97.3067 231.89 97.3414 231.942C97.3847 231.994 97.4107 232.098 97.4107 232.185C97.4107 232.263 97.4454 232.401 97.4888 232.488C97.5321 232.566 97.6188 232.809 97.6795 233.025C97.7402 233.242 97.8182 233.45 97.8615 233.502C97.9049 233.554 97.9309 233.658 97.9309 233.745C97.9309 233.823 97.9656 233.892 98.0176 233.892C98.0696 233.892 98.1043 233.996 98.1043 234.135C98.1043 234.265 98.1303 234.404 98.165 234.447C98.1996 234.482 98.2863 234.664 98.3383 234.837C98.399 235.011 98.451 235.219 98.451 235.305C98.451 235.383 98.4857 235.453 98.5377 235.453C98.5898 235.453 98.6244 235.574 98.6244 235.713C98.6244 235.852 98.6591 235.99 98.7111 236.016C98.7631 236.042 98.7978 236.138 98.7978 236.233C98.7978 236.328 98.8325 236.476 98.8845 236.562C98.9278 236.64 99.0492 236.961 99.1446 237.273C99.2486 237.585 99.3613 237.915 99.396 238.01C99.4393 238.106 99.5607 238.478 99.6734 238.834C99.7774 239.189 99.8988 239.527 99.9421 239.571C99.9855 239.614 100.011 239.761 100.011 239.9C100.011 240.03 100.046 240.134 100.098 240.134C100.15 240.134 100.185 240.212 100.185 240.308C100.185 240.403 100.22 240.498 100.272 240.524C100.324 240.55 100.358 240.663 100.358 240.784C100.358 240.906 100.436 241.157 100.532 241.348C100.627 241.539 100.705 241.79 100.705 241.911C100.705 242.033 100.74 242.145 100.792 242.171C100.844 242.197 100.878 242.293 100.878 242.388C100.878 242.483 100.913 242.631 100.948 242.718C100.991 242.796 101.069 242.952 101.121 243.064C101.182 243.168 101.225 243.333 101.225 243.428C101.225 243.524 101.26 243.619 101.312 243.645C101.364 243.671 101.399 243.784 101.399 243.905C101.399 244.027 101.433 244.139 101.485 244.165C101.537 244.191 101.572 244.304 101.572 244.425C101.572 244.547 101.607 244.659 101.659 244.685C101.711 244.711 101.745 244.824 101.745 244.946C101.745 245.067 101.815 245.31 101.901 245.492C101.988 245.665 102.109 245.986 102.17 246.203C102.231 246.419 102.318 246.679 102.361 246.792C102.404 246.896 102.474 247.069 102.517 247.182C102.559 247.284 102.751 247.875 102.954 248.501L102.968 248.543C103.167 249.185 103.366 249.757 103.41 249.8C103.453 249.844 103.479 250.225 103.479 250.65C103.479 251.309 103.444 251.465 103.228 251.907C103.089 252.176 102.846 252.531 102.69 252.696C102.526 252.852 102.17 253.103 101.901 253.233C101.624 253.372 101.303 253.485 101.182 253.485C101.06 253.485 100.948 253.528 100.922 253.571C100.896 253.623 100.02 253.658 98.5637 253.658C97.064 253.658 96.1364 253.623 95.937 253.554C95.7723 253.502 95.4602 253.381 95.2521 253.277C95.0354 253.173 94.706 252.939 94.5152 252.748C94.3159 252.557 94.0644 252.184 93.9517 251.924C93.8391 251.664 93.7177 251.378 93.6743 251.3C93.631 251.213 93.5963 251.066 93.5963 250.971C93.5963 250.875 93.5616 250.78 93.5096 250.754C93.4576 250.728 93.4229 250.633 93.4229 250.537C93.4229 250.442 93.3883 250.294 93.3449 250.216C93.3016 250.13 93.2149 249.887 93.1542 249.67C93.0935 249.454 92.9374 249.063 92.8074 248.803C92.686 248.543 92.4173 248.179 92.2179 248.006C92.0272 247.824 91.6717 247.581 90.9956 247.243H84.8664C78.9194 247.243 78.7113 247.252 78.2519 247.416C77.9918 247.512 77.6624 247.702 77.5237 247.832C77.385 247.962 77.1249 248.248 76.9428 248.483C76.7174 248.754 76.6047 248.977 76.6047 249.15C76.6047 249.289 76.57 249.427 76.518 249.454C76.466 249.48 76.4313 249.592 76.4313 249.714C76.4313 249.835 76.3967 249.948 76.3446 249.974C76.2926 250 76.2579 250.095 76.2579 250.19C76.2579 250.286 76.2233 250.433 76.1799 250.52C76.1366 250.598 76.0152 250.962 75.9025 251.317C75.7898 251.673 75.5991 252.106 75.4604 252.271C75.3304 252.436 75.1483 252.652 75.0616 252.748C74.9662 252.843 74.7408 253.034 74.5588 253.164C74.3681 253.294 74.0473 253.45 73.8306 253.502C73.6052 253.563 72.4609 253.615 71.0564 253.632C69.5133 253.649 68.6377 253.623 68.5857 253.571C68.5424 253.519 68.4123 253.485 68.3083 253.485C68.1956 253.485 67.8922 253.381 67.6235 253.251C67.2767 253.077 67.0166 252.86 66.7565 252.531C66.5485 252.271 66.3404 251.898 66.2884 251.707C66.2277 251.517 66.1497 251.291 66.1063 251.213C66.063 251.127 66.0283 250.867 66.0283 250.624C66.0283 250.39 66.063 250.121 66.1063 250.043C66.1497 249.956 66.2364 249.714 66.2971 249.497C66.3577 249.28 66.4358 249.063 66.4791 249.02C66.5225 248.977 66.5485 248.847 66.5485 248.743C66.5485 248.63 66.5918 248.526 66.6352 248.5C66.6785 248.474 66.7219 248.353 66.7219 248.222C66.7219 248.084 66.7479 247.945 66.7825 247.902C66.8259 247.867 66.9473 247.572 67.0513 247.252C67.164 246.939 67.3027 246.523 67.3634 246.333C67.4241 246.142 67.5368 245.83 67.6148 245.639C67.7015 245.448 67.7622 245.223 67.7622 245.145C67.7622 245.058 67.8055 244.972 67.8488 244.946C67.8922 244.92 67.9355 244.807 67.9355 244.685C67.9355 244.564 67.9789 244.451 68.0222 244.425C68.0656 244.399 68.1089 244.287 68.1089 244.165C68.1089 244.044 68.1523 243.931 68.1956 243.905C68.239 243.879 68.2823 243.767 68.2823 243.645C68.2823 243.524 68.3603 243.264 68.447 243.064C68.5424 242.856 68.6984 242.44 68.8025 242.128C68.8978 241.816 69.0192 241.495 69.0625 241.417C69.1145 241.33 69.1492 241.2 69.1492 241.131C69.1492 241.062 69.1839 240.932 69.2272 240.854C69.2706 240.767 69.3486 240.542 69.4006 240.351C69.4613 240.16 69.548 239.909 69.6 239.787C69.652 239.666 69.7214 239.501 69.7647 239.423C69.8081 239.337 69.8428 239.198 69.8428 239.12C69.8428 239.033 69.9208 238.799 70.0161 238.6C70.1115 238.392 70.1895 238.149 70.1895 238.054C70.1895 237.958 70.2329 237.793 70.2936 237.689C70.3456 237.577 70.4236 237.421 70.4669 237.343C70.5016 237.256 70.5363 237.109 70.5363 237.013C70.5363 236.918 70.5796 236.823 70.623 236.797C70.6663 236.77 70.7097 236.666 70.7097 236.562C70.7097 236.45 70.7357 236.32 70.779 236.276C70.8224 236.233 70.9004 236.016 70.9611 235.8C71.0218 235.583 71.1085 235.34 71.1518 235.262C71.1951 235.175 71.2298 235.028 71.2298 234.933C71.2298 234.837 71.2558 234.742 71.2992 234.725C71.3339 234.707 71.4205 234.491 71.4899 234.239C71.5593 233.988 71.646 233.771 71.6893 233.754C71.724 233.736 71.75 233.598 71.75 233.459C71.75 233.32 71.7933 233.199 71.8367 233.199C71.88 233.199 71.9234 233.095 71.9234 232.965C71.9234 232.826 71.9494 232.687 71.984 232.644C72.0187 232.609 72.1401 232.315 72.2441 231.994C72.3481 231.682 72.4435 231.352 72.4435 231.274C72.4435 231.188 72.4869 231.118 72.5302 231.118C72.5735 231.118 72.6169 231.049 72.6169 230.971C72.6169 230.884 72.6949 230.65 72.7903 230.451C72.8856 230.243 72.9637 230 72.9637 229.905C72.9637 229.809 72.9983 229.653 73.0504 229.558C73.1024 229.462 73.1717 229.306 73.2237 229.211C73.2758 229.116 73.3104 228.96 73.3104 228.864C73.3104 228.769 73.3451 228.673 73.3971 228.647C73.4491 228.621 73.4838 228.517 73.4838 228.413C73.4838 228.301 73.5098 228.179 73.5445 228.136C73.5878 228.101 73.6659 227.919 73.7179 227.746C73.7786 227.573 73.8306 227.364 73.8306 227.286C73.8306 227.2 73.8653 227.061 73.9086 226.983C73.952 226.896 74.03 226.706 74.0907 226.567C74.1513 226.428 74.2294 226.237 74.2727 226.159C74.3161 226.073 74.3507 225.943 74.3507 225.873C74.3507 225.804 74.3854 225.674 74.4288 225.596C74.4721 225.509 74.5848 225.171 74.6888 224.833C74.7929 224.495 74.9142 224.148 74.9489 224.053C74.9923 223.957 75.0789 223.706 75.1396 223.489C75.2003 223.273 75.2783 223.065 75.3217 223.013C75.365 222.969 75.391 222.822 75.391 222.692C75.391 222.553 75.4257 222.449 75.4777 222.449C75.5297 222.449 75.5644 222.38 75.5644 222.302C75.5644 222.215 75.6424 221.981 75.7378 221.781C75.8332 221.573 75.9112 221.339 75.9112 221.261C75.9112 221.175 75.9892 220.941 76.0846 220.741C76.1799 220.533 76.2579 220.29 76.2579 220.195C76.2579 220.1 76.2926 220.004 76.3446 219.978C76.3967 219.952 76.4313 219.848 76.4313 219.744C76.4313 219.632 76.4573 219.51 76.5007 219.458C76.544 219.415 76.622 219.198 76.6827 218.981C76.7434 218.765 76.8301 218.522 76.8735 218.444C76.9168 218.357 76.9515 218.21 76.9515 218.114C76.9515 218.019 76.9862 217.941 77.0382 217.941C77.0902 217.941 77.1249 217.863 77.1249 217.768C77.1335 217.672 77.1682 217.525 77.2029 217.438C77.2462 217.36 77.3676 216.996 77.4716 216.641C77.5757 216.285 77.697 215.912 77.7317 215.817C77.7664 215.722 77.8444 215.505 77.9051 215.34C77.9658 215.176 78.0438 214.959 78.0785 214.863C78.1132 214.768 78.2345 214.508 78.3472 214.274C78.4599 214.049 78.6333 213.771 78.7287 213.658C78.824 213.554 79.0754 213.346 79.2835 213.208Z" stroke="white" stroke-width="3.09"/>
</g>
<path d="M71.0822 33.1734C71.1602 33.1734 71.2296 33.1387 71.2296 33.0867C71.2296 33.0347 72.0965 33 73.6569 33C75.2174 33 76.0843 33.0347 76.0843 33.0867C76.0843 33.1387 76.1623 33.1734 76.2577 33.1734C76.3531 33.1734 76.5958 33.2601 76.7865 33.3728C76.9859 33.4768 77.3327 33.7716 77.5667 34.023C77.8008 34.2657 77.9915 34.5518 77.9915 34.6471C77.9915 34.7425 78.0349 34.8379 78.0782 34.8639C78.1302 34.8899 78.1649 34.9852 78.1649 35.0806C78.1649 35.176 78.2083 35.254 78.2516 35.254C78.3123 35.254 78.3383 37.1785 78.3383 40.8456C78.3383 44.4867 78.3643 46.4546 78.425 46.4806C78.477 46.5066 78.5117 46.6019 78.5117 46.6973C78.5117 46.7927 78.633 47.0527 78.7891 47.2868C78.9451 47.5122 79.1099 47.7376 79.1619 47.7809C79.2052 47.833 79.4306 47.9977 79.6647 48.1537C79.8901 48.3098 80.1328 48.4311 80.2022 48.4311C80.2715 48.4311 80.3495 48.4745 80.3756 48.5178C80.4016 48.5698 81.9533 48.6045 84.7535 48.6045C87.5536 48.6045 89.1054 48.5698 89.1314 48.5178C89.1574 48.4745 89.2355 48.4311 89.3048 48.4311C89.3742 48.4311 89.5996 48.3184 89.8076 48.1797C90.007 48.041 90.2758 47.8156 90.4058 47.6769C90.5272 47.5469 90.7179 47.2868 90.8132 47.1134C90.9173 46.9314 90.9953 46.6886 90.9953 46.5673C90.9953 46.4459 91.0386 46.3332 91.082 46.3072C91.1427 46.2812 91.1687 44.348 91.1687 40.7849C91.1687 36.6584 91.1947 35.2193 91.2814 34.9939C91.3334 34.8292 91.4808 34.5344 91.6021 34.3524C91.7235 34.1617 91.9749 33.8843 92.1656 33.7369C92.3564 33.5808 92.6511 33.3901 92.8158 33.3121C92.9805 33.2341 93.1886 33.1734 93.2753 33.1734C93.3533 33.1734 93.4227 33.1387 93.4227 33.0867C93.4227 33.0347 94.2896 33 95.85 33C97.4105 33 98.2774 33.0347 98.2774 33.0867C98.2774 33.1387 98.3554 33.1734 98.4508 33.1734C98.5462 33.1734 98.7715 33.2514 98.9536 33.3554C99.127 33.4508 99.4044 33.6589 99.5691 33.8062C99.7252 33.9623 99.9766 34.257 100.107 34.4738C100.245 34.6905 100.358 34.9506 100.358 35.0633C100.358 35.1673 100.401 35.254 100.445 35.254C100.505 35.254 100.531 41.3658 100.531 53.4159C100.531 64.2524 100.497 71.6385 100.453 71.7339C100.413 71.8062 100.336 71.9903 100.269 72.148L100.254 72.1847C100.193 72.3494 99.9939 72.6702 99.8205 72.9042C99.6211 73.147 99.3177 73.3984 99.0576 73.5284C98.8236 73.6498 98.5462 73.7451 98.4508 73.7451C98.3554 73.7451 98.2774 73.7885 98.2774 73.8318C98.2774 73.8838 97.4105 73.9185 95.85 73.9185C94.2896 73.9185 93.4227 73.8838 93.4227 73.8318C93.4227 73.7885 93.3446 73.7451 93.2493 73.7451C93.1539 73.7451 92.8938 73.6498 92.6684 73.5284C92.4344 73.4157 92.1743 73.251 92.0789 73.1643C91.9749 73.0776 91.7842 72.8349 91.6368 72.6181C91.4981 72.4014 91.3334 72.0893 91.2727 71.9246C91.1947 71.6992 91.1687 70.1388 91.1687 65.8822C91.1687 62.1371 91.1427 60.1172 91.082 60.0912C91.0386 60.0652 90.9953 59.9265 90.9953 59.7878C90.9953 59.6491 90.9606 59.5103 90.9086 59.4843C90.8653 59.4583 90.8219 59.3716 90.8219 59.2936C90.8219 59.2069 90.6312 58.9295 90.3885 58.6868C90.1544 58.4354 89.7643 58.1319 89.5215 58.0106C89.2788 57.8892 88.9407 57.7938 88.7413 57.7938C88.5506 57.7938 88.3945 57.7505 88.3945 57.7072C88.3945 57.6465 87.0942 57.6205 84.6668 57.6205C82.2654 57.6205 80.9217 57.6551 80.8957 57.7072C80.8697 57.7505 80.757 57.7938 80.6356 57.7938C80.5143 57.7938 80.2368 57.8805 80.0114 57.9846C79.7774 58.0973 79.4306 58.3487 79.2312 58.5481C79.0232 58.7561 78.7804 59.0509 78.6851 59.2069C78.5897 59.3543 78.5117 59.571 78.5117 59.6837C78.5117 59.7878 78.477 59.8918 78.425 59.9178C78.3643 59.9438 78.3383 61.9984 78.3383 65.8128C78.3383 69.6533 78.3123 71.6645 78.2516 71.6645C78.2083 71.6645 78.1649 71.7859 78.1649 71.9246C78.1649 72.0633 78.1302 72.1847 78.0782 72.1847C78.0349 72.1847 77.9915 72.2367 77.9915 72.2974C77.9915 72.3494 77.8788 72.5575 77.7488 72.7395C77.6188 72.9302 77.2807 73.2337 76.9946 73.4157C76.7085 73.5978 76.3877 73.7451 76.2837 73.7451C76.171 73.7451 76.0843 73.7885 76.0843 73.8318C76.0843 73.8838 75.2174 73.9185 73.6569 73.9185C72.0965 73.9185 71.2296 73.8838 71.2296 73.8318C71.2296 73.7885 71.1342 73.7451 71.0128 73.7451C70.8915 73.7451 70.6487 73.6584 70.458 73.5544C70.276 73.4417 70.0332 73.277 69.9205 73.1816C69.7992 73.0863 69.5911 72.8349 69.4437 72.6181C69.305 72.4014 69.1403 72.0893 69.0796 71.9246C69.0016 71.6905 68.9756 67.4166 68.9756 53.4593C68.9756 39.2678 69.0016 35.228 69.0883 34.9939C69.1403 34.8292 69.305 34.5171 69.4351 34.3004C69.5738 34.0836 69.8252 33.8149 69.9985 33.6935C70.1806 33.5722 70.458 33.4075 70.6227 33.3208C70.7874 33.2427 70.9955 33.1734 71.0822 33.1734Z" stroke="white" stroke-width="3"/>
<path d="M89.0881 93.3166C89.6343 93.3166 89.9551 93.2819 89.9637 93.2212C89.9637 93.1605 90.4839 93.1519 91.6282 93.1779C92.5471 93.2039 93.6741 93.2472 94.1336 93.2732C94.6104 93.2993 94.9832 93.3513 94.9832 93.4033C94.9832 93.4553 95.1999 93.49 95.46 93.49C95.7201 93.49 95.9541 93.5247 95.9801 93.5767C96.0061 93.6287 96.1969 93.6634 96.4136 93.6634C96.6303 93.6634 96.821 93.698 96.8471 93.7501C96.8731 93.8021 97.0291 93.8367 97.1938 93.8367C97.3585 93.8367 97.5146 93.8714 97.5406 93.9234C97.5666 93.9755 97.7053 94.0101 97.844 94.0101C97.9827 94.0101 98.1214 94.0448 98.1474 94.0968C98.1734 94.1488 98.2861 94.1835 98.4075 94.1835C98.5289 94.1835 98.6416 94.2182 98.6676 94.2702C98.6936 94.3222 98.8063 94.3569 98.9277 94.3569C99.049 94.3569 99.1617 94.3916 99.1877 94.4436C99.2137 94.4956 99.3004 94.5303 99.3785 94.5303C99.4651 94.5303 99.8466 94.6863 100.228 94.877C100.609 95.0678 100.965 95.2238 101.008 95.2238C101.052 95.2238 101.26 95.3365 101.459 95.4665C101.658 95.5966 102.04 95.8393 102.309 96.004C102.569 96.1688 102.785 96.3335 102.785 96.3768C102.785 96.4115 102.837 96.4375 102.889 96.4375C102.95 96.4375 103.236 96.6196 103.514 96.8449C103.791 97.079 104.285 97.5125 104.597 97.8246C104.909 98.1367 105.334 98.5875 105.525 98.8215C105.724 99.0643 106.08 99.5497 106.314 99.9052C106.548 100.261 106.912 100.911 107.12 101.336C107.328 101.76 107.536 102.211 107.579 102.333C107.623 102.454 107.692 102.619 107.736 102.705C107.779 102.783 107.814 102.931 107.814 103.026C107.814 103.121 107.857 103.217 107.9 103.243C107.944 103.269 107.987 103.425 107.987 103.59C107.987 103.754 108.03 103.91 108.074 103.936C108.117 103.962 108.16 104.118 108.16 104.283C108.16 104.448 108.204 104.587 108.247 104.587C108.299 104.587 108.334 104.873 108.334 105.28C108.334 105.688 108.368 105.974 108.42 105.974C108.472 105.974 108.507 106.494 108.507 107.361C108.507 108.228 108.472 108.748 108.42 108.748C108.368 108.748 108.334 109.034 108.334 109.441C108.334 109.849 108.299 110.135 108.247 110.135C108.204 110.135 108.16 110.334 108.16 110.568C108.16 110.811 108.117 111.002 108.074 111.002C108.03 111.002 107.987 111.149 107.987 111.331C107.987 111.505 107.909 111.869 107.814 112.129C107.718 112.389 107.64 112.692 107.64 112.805C107.64 112.909 107.597 113.013 107.553 113.039C107.51 113.065 107.467 113.16 107.467 113.256C107.467 113.351 107.423 113.429 107.38 113.429C107.337 113.429 107.293 113.498 107.293 113.585C107.293 113.663 107.215 113.897 107.12 114.105C107.025 114.305 106.947 114.504 106.947 114.556C106.947 114.608 106.877 114.79 106.782 114.972C106.695 115.146 106.487 115.562 106.331 115.9C106.175 116.238 105.811 116.897 105.534 117.374C105.247 117.85 104.814 118.535 104.571 118.891C104.329 119.246 103.93 119.827 103.678 120.174C103.427 120.512 103.158 120.815 103.089 120.841C103.02 120.867 102.959 120.945 102.959 121.015C102.959 121.084 102.621 121.509 102.205 121.951C101.788 122.384 101.069 123.121 100.618 123.572C100.159 124.023 99.6299 124.534 99.4391 124.708C99.2571 124.881 98.7716 125.289 98.3642 125.601C97.9567 125.921 97.5666 126.225 97.4972 126.285C97.4279 126.346 97.2285 126.485 97.0638 126.606C96.8991 126.719 96.743 126.84 96.717 126.866C96.691 126.892 96.3789 127.109 96.0235 127.352C95.668 127.595 95.2086 127.881 95.0005 128.002C94.8011 128.115 94.6364 128.236 94.6364 128.279C94.6364 128.314 94.5844 128.34 94.5237 128.34C94.4717 128.34 94.3243 128.409 94.203 128.487C94.0903 128.574 93.6568 128.826 93.2493 129.051C92.8419 129.276 92.1657 129.632 91.7322 129.849C91.2988 130.057 90.6139 130.386 90.1891 130.585C89.773 130.785 89.3742 130.941 89.3049 130.941C89.2355 130.941 89.1575 130.984 89.1315 131.028C89.1055 131.071 88.9928 131.114 88.8714 131.114C88.75 131.114 88.6373 131.14 88.62 131.184C88.6027 131.218 88.1865 131.374 87.6924 131.539C87.1983 131.695 86.7215 131.86 86.6348 131.903C86.5567 131.946 86.4094 131.981 86.314 131.981C86.2186 131.981 86.1233 132.024 86.0973 132.068C86.0713 132.111 85.9672 132.155 85.8545 132.155C85.7505 132.155 85.5424 132.207 85.4037 132.276C85.2564 132.354 85.057 132.389 84.9443 132.371C84.8402 132.345 84.7535 132.371 84.7535 132.415C84.7535 132.458 84.5975 132.501 84.4068 132.501C84.2161 132.501 84.06 132.545 84.06 132.588C84.06 132.631 83.8866 132.675 83.6699 132.675C83.4532 132.675 83.2624 132.718 83.2364 132.761C83.2104 132.805 82.9937 132.848 82.7596 132.848C82.5169 132.848 82.3262 132.891 82.3262 132.935C82.3262 132.987 82.0488 133.021 81.676 133.021C81.3206 133.021 81.0085 133.065 80.9825 133.108C80.9564 133.16 80.4796 133.195 79.8121 133.195C79.1186 133.195 78.6851 133.229 78.6851 133.282C78.6851 133.334 78.2863 133.351 77.5755 133.325C76.9686 133.299 76.1017 133.255 75.6509 133.229C75.2001 133.203 74.784 133.143 74.7406 133.099C74.6973 133.056 74.4286 133.021 74.1511 133.021C73.8824 133.021 73.6397 132.978 73.6137 132.935C73.5876 132.891 73.3536 132.848 73.0935 132.848C72.8334 132.848 72.6167 132.805 72.6167 132.761C72.6167 132.718 72.4953 132.675 72.3566 132.675C72.2092 132.675 72.0965 132.631 72.0965 132.588C72.0965 132.545 71.9405 132.501 71.7498 132.501C71.5591 132.501 71.403 132.475 71.403 132.441C71.403 132.397 71.3337 132.363 71.247 132.363C71.1689 132.354 70.8655 132.259 70.5794 132.155C70.2934 132.05 69.9206 131.903 69.7559 131.834C69.5912 131.756 69.1404 131.548 68.7589 131.357C68.3775 131.175 67.944 130.958 67.8053 130.871C67.6579 130.793 67.3892 130.629 67.1985 130.516C67.0077 130.395 66.5569 130.074 66.2015 129.805C65.8461 129.536 65.3519 129.12 65.1179 128.886C64.8751 128.661 64.4763 128.236 64.2163 127.95C63.9562 127.664 63.5227 127.1 63.254 126.693C62.9766 126.285 62.5605 125.566 62.3264 125.089C62.0923 124.612 61.8496 124.049 61.7889 123.832C61.7282 123.615 61.6415 123.364 61.6068 123.269C61.5635 123.173 61.4941 122.957 61.4421 122.792C61.3901 122.627 61.3468 122.358 61.3468 122.211C61.3468 122.055 61.3034 121.925 61.2601 121.925C61.2081 121.925 61.1734 121.665 61.1734 121.318C61.1734 120.971 61.1387 120.711 61.0867 120.711C61.0347 120.711 61 120.104 61 119.064C61 118.024 61.0347 117.417 61.0867 117.417C61.1387 117.417 61.1734 117.157 61.1734 116.81C61.1734 116.463 61.2081 116.203 61.2601 116.203C61.3034 116.203 61.3468 116.012 61.3468 115.77C61.3468 115.536 61.3901 115.336 61.4335 115.336C61.4768 115.336 61.5202 115.198 61.5202 115.033C61.5202 114.868 61.5635 114.712 61.6068 114.686C61.6502 114.66 61.6935 114.539 61.6935 114.409C61.6935 114.27 61.7802 113.932 61.8756 113.646C61.9709 113.36 62.127 112.961 62.2224 112.762C62.309 112.553 62.3871 112.354 62.3871 112.302C62.3871 112.25 62.4651 112.033 62.5691 111.808C62.6645 111.574 62.7858 111.322 62.8292 111.244C62.8725 111.158 62.9419 111.019 62.9852 110.941C63.0286 110.854 63.1153 110.664 63.176 110.525C63.2366 110.386 63.358 110.169 63.436 110.048C63.5141 109.927 63.7135 109.563 63.8868 109.225C64.0602 108.886 64.2856 108.522 64.381 108.401C64.485 108.28 64.6324 108.063 64.7104 107.924C64.7798 107.785 64.9792 107.473 65.1439 107.231C65.3086 106.997 65.5513 106.658 65.6727 106.494C65.7941 106.329 65.9501 106.13 66.0195 106.06C66.0888 105.991 66.2449 105.792 66.3662 105.627C66.4876 105.462 66.609 105.306 66.635 105.28C66.661 105.254 66.9297 104.942 67.2418 104.587C67.5539 104.231 68.1954 103.555 68.6722 103.069C69.1577 102.593 69.9119 101.899 70.3627 101.526C70.8135 101.154 71.455 100.625 71.7931 100.356C72.1226 100.087 72.4086 99.8358 72.4173 99.8011C72.4346 99.7578 72.4867 99.7318 72.53 99.7318C72.5734 99.7318 72.7988 99.6104 73.0242 99.4544C73.2582 99.2983 73.501 99.1249 73.5703 99.0556C73.6397 98.9862 73.7957 98.8822 73.9171 98.8215C74.0384 98.7608 74.3245 98.5788 74.5586 98.4227C74.8013 98.258 75.2088 98.0066 75.4689 97.8506C75.7376 97.7032 76.6912 97.2091 77.6015 96.7583C78.5117 96.2988 79.5087 95.8133 79.8295 95.6659C80.1589 95.5186 80.4796 95.3972 80.549 95.3972C80.6184 95.3972 80.6964 95.3625 80.7224 95.3105C80.7484 95.2585 80.8437 95.2238 80.9391 95.2238C81.0345 95.2238 81.1818 95.1891 81.2599 95.1458C81.3466 95.1024 81.5113 95.0331 81.6326 94.9897C81.754 94.9377 81.9447 94.8597 82.0661 94.8077C82.1875 94.7643 82.4562 94.6777 82.6729 94.617C82.8897 94.565 83.1324 94.4783 83.2104 94.4349C83.2971 94.3916 83.4792 94.3569 83.6266 94.3569C83.7653 94.3569 83.8866 94.3222 83.8866 94.2702C83.8866 94.2182 84.0253 94.1835 84.1901 94.1835C84.3548 94.1835 84.5108 94.1488 84.5368 94.0968C84.5628 94.0448 84.7275 94.0101 84.9096 94.0101C85.0916 94.0101 85.2737 93.9755 85.3257 93.9321C85.3691 93.8888 85.5771 93.8281 85.7938 93.8021C86.0106 93.7674 86.366 93.724 86.5914 93.7067C86.8255 93.6807 87.0075 93.6287 87.0075 93.5767C87.0075 93.5247 87.2676 93.49 87.6144 93.49C87.9611 93.49 88.2212 93.4553 88.2212 93.4033C88.2212 93.3513 88.568 93.3166 89.0881 93.3166Z" stroke="white" stroke-width="3.55436"/>
<path d="M71.3686 152.756C71.4813 152.756 71.5767 152.721 71.5767 152.669C71.5767 152.609 76.024 152.583 84.7538 152.583C93.449 152.583 97.9483 152.609 97.9743 152.669C98.0004 152.721 98.087 152.756 98.1651 152.756C98.2518 152.756 98.4251 152.843 98.5552 152.955C98.6852 153.059 98.928 153.25 99.0927 153.389C99.2661 153.519 99.5001 153.822 99.6215 154.056C99.7429 154.299 99.8382 154.568 99.8382 154.663C99.8382 154.758 99.8816 154.854 99.9249 154.88C99.9769 154.906 100.012 155.721 100.012 157.047C100.012 158.408 99.9769 159.171 99.9249 159.171C99.8816 159.171 99.8382 159.24 99.8382 159.327C99.8382 159.405 99.7775 159.631 99.7168 159.821C99.6475 160.012 99.4568 160.324 99.2921 160.515C99.1273 160.706 98.8413 160.974 98.6592 161.104C98.4772 161.234 98.1477 161.39 97.931 161.442C97.6883 161.503 96.4226 161.555 94.5934 161.572C92.8595 161.59 91.6112 161.642 91.5592 161.685C91.5158 161.737 91.4031 161.772 91.2991 161.772C91.2037 161.772 90.987 161.885 90.8223 162.015C90.6576 162.145 90.4062 162.37 90.2588 162.517C90.1201 162.656 89.912 162.951 89.808 163.168C89.704 163.376 89.5826 163.688 89.5306 163.852C89.4612 164.069 89.4352 168.074 89.4352 191.204L89.2098 191.681C89.0798 191.941 88.8977 192.27 88.7937 192.4C88.6983 192.539 88.4469 192.764 88.2475 192.903C88.0395 193.042 87.8314 193.154 87.7881 193.154C87.7447 193.154 87.632 193.189 87.554 193.232C87.4673 193.276 87.2592 193.354 87.0945 193.406C86.9038 193.458 86.0022 193.501 84.7365 193.501C83.4448 193.501 82.6559 193.466 82.6299 193.414C82.6039 193.371 82.4912 193.328 82.3698 193.328C82.2485 193.328 81.945 193.224 81.7023 193.102C81.4509 192.981 81.1475 192.799 81.0348 192.695C80.9221 192.591 80.7053 192.296 80.5406 192.053C80.3759 191.802 80.2459 191.516 80.2459 191.42C80.2459 191.325 80.2025 191.23 80.1592 191.204C80.0985 191.178 80.0725 186.496 80.0725 177.42C80.0725 168.317 80.0465 163.679 79.9858 163.679C79.9425 163.679 79.8991 163.618 79.8991 163.549C79.8991 163.48 79.7777 163.211 79.6304 162.968C79.4743 162.717 79.3096 162.465 79.2576 162.422C79.2056 162.37 78.9802 162.205 78.7548 162.049C78.5207 161.893 78.2693 161.772 78.1913 161.772C78.1046 161.772 77.9919 161.737 77.9485 161.694C77.8965 161.642 76.6828 161.59 74.9143 161.572C73.2932 161.555 71.8281 161.503 71.6634 161.468C71.4987 161.425 71.1866 161.286 70.9699 161.148C70.7531 161.009 70.4584 160.749 70.311 160.576C70.1636 160.402 69.9556 160.09 69.8515 159.891C69.7562 159.683 69.6695 159.362 69.6695 159.171C69.6695 158.98 69.6261 158.824 69.5828 158.824C69.5308 158.824 69.4961 158.191 69.4961 157.09C69.4961 155.99 69.5308 155.357 69.5828 155.357C69.6261 155.357 69.6695 155.166 69.6695 154.923C69.6695 154.646 69.7388 154.368 69.8515 154.169C69.9469 153.987 70.285 153.597 70.5884 153.302C70.9699 152.938 71.2213 152.756 71.3686 152.756Z" stroke="white" stroke-width="3"/>
<path d="M79.2835 213.208C79.5002 213.069 79.7863 212.913 79.9337 212.861C80.1244 212.792 81.6242 212.757 84.8231 212.748C87.8226 212.74 89.4524 212.766 89.4784 212.826C89.5045 212.878 89.5998 212.913 89.6952 212.913C89.7905 212.913 89.9552 212.965 90.0593 213.026C90.1633 213.078 90.4234 213.286 90.6228 213.476C90.8308 213.667 91.1082 214.04 91.2469 214.3C91.377 214.56 91.5417 214.95 91.6024 215.167C91.6631 215.384 91.7498 215.592 91.7931 215.644C91.8365 215.696 91.8625 215.817 91.8625 215.93C91.8625 216.034 91.8971 216.138 91.9492 216.164C92.0012 216.19 92.0359 216.277 92.0359 216.363C92.0359 216.441 92.1139 216.675 92.2092 216.883C92.3046 217.083 92.3826 217.326 92.3826 217.421C92.3826 217.516 92.4173 217.612 92.4693 217.638C92.5213 217.664 92.556 217.776 92.556 217.898C92.556 218.019 92.5907 218.184 92.634 218.27C92.6774 218.348 92.7467 218.513 92.7987 218.635C92.8508 218.756 92.9721 219.085 93.0675 219.371C93.1715 219.658 93.2495 219.961 93.2495 220.048C93.2495 220.126 93.2842 220.195 93.3362 220.195C93.3882 220.195 93.4229 220.316 93.4229 220.455C93.4229 220.594 93.4576 220.715 93.5096 220.715C93.5616 220.715 93.5963 220.793 93.5963 220.889C93.5963 220.984 93.631 221.131 93.6743 221.218C93.7177 221.296 93.9604 222.007 94.2118 222.796C94.4632 223.585 94.6973 224.261 94.7406 224.313C94.784 224.365 94.81 224.504 94.81 224.642C94.81 224.772 94.8447 224.876 94.8967 224.876C94.9487 224.876 94.9834 224.954 94.9834 225.05C94.9834 225.145 95.018 225.24 95.0701 225.266C95.1221 225.293 95.1568 225.397 95.1568 225.509C95.1568 225.613 95.2088 225.839 95.2695 226.012C95.3215 226.185 95.3995 226.367 95.4428 226.402C95.4775 226.446 95.5035 226.567 95.5035 226.68C95.5035 226.784 95.5382 226.888 95.5902 226.914C95.6422 226.94 95.6769 227.035 95.6769 227.13C95.6769 227.226 95.7116 227.382 95.7636 227.477C95.8156 227.573 95.885 227.729 95.937 227.824C95.989 227.919 96.0237 228.075 96.0237 228.171C96.0237 228.266 96.0584 228.361 96.1104 228.387C96.1624 228.413 96.1971 228.526 96.1971 228.647C96.1971 228.769 96.2317 228.882 96.2838 228.908C96.3358 228.934 96.3704 229.046 96.3704 229.168C96.3704 229.289 96.4051 229.384 96.4571 229.384C96.5091 229.384 96.5438 229.454 96.5438 229.54C96.5438 229.618 96.6305 229.939 96.7345 230.251C96.8299 230.563 96.9426 230.893 96.986 230.988C97.0206 231.084 97.0987 231.318 97.1593 231.508C97.22 231.699 97.3067 231.89 97.3414 231.942C97.3847 231.994 97.4107 232.098 97.4107 232.185C97.4107 232.263 97.4454 232.401 97.4888 232.488C97.5321 232.566 97.6188 232.809 97.6795 233.025C97.7402 233.242 97.8182 233.45 97.8615 233.502C97.9049 233.554 97.9309 233.658 97.9309 233.745C97.9309 233.823 97.9656 233.892 98.0176 233.892C98.0696 233.892 98.1043 233.996 98.1043 234.135C98.1043 234.265 98.1303 234.404 98.165 234.447C98.1996 234.482 98.2863 234.664 98.3383 234.837C98.399 235.011 98.451 235.219 98.451 235.305C98.451 235.383 98.4857 235.453 98.5377 235.453C98.5898 235.453 98.6244 235.574 98.6244 235.713C98.6244 235.852 98.6591 235.99 98.7111 236.016C98.7631 236.042 98.7978 236.138 98.7978 236.233C98.7978 236.328 98.8325 236.476 98.8845 236.562C98.9278 236.64 99.0492 236.961 99.1446 237.273C99.2486 237.585 99.3613 237.915 99.396 238.01C99.4393 238.106 99.5607 238.478 99.6734 238.834C99.7774 239.189 99.8988 239.527 99.9421 239.571C99.9855 239.614 100.011 239.761 100.011 239.9C100.011 240.03 100.046 240.134 100.098 240.134C100.15 240.134 100.185 240.212 100.185 240.308C100.185 240.403 100.22 240.498 100.272 240.524C100.324 240.55 100.358 240.663 100.358 240.784C100.358 240.906 100.436 241.157 100.532 241.348C100.627 241.539 100.705 241.79 100.705 241.911C100.705 242.033 100.74 242.145 100.792 242.171C100.844 242.197 100.878 242.293 100.878 242.388C100.878 242.483 100.913 242.631 100.948 242.718C100.991 242.796 101.069 242.952 101.121 243.064C101.182 243.168 101.225 243.333 101.225 243.428C101.225 243.524 101.26 243.619 101.312 243.645C101.364 243.671 101.399 243.784 101.399 243.905C101.399 244.027 101.433 244.139 101.485 244.165C101.537 244.191 101.572 244.304 101.572 244.425C101.572 244.547 101.607 244.659 101.659 244.685C101.711 244.711 101.745 244.824 101.745 244.946C101.745 245.067 101.815 245.31 101.901 245.492C101.988 245.665 102.109 245.986 102.17 246.203C102.231 246.419 102.318 246.679 102.361 246.792C102.404 246.896 102.474 247.069 102.517 247.182C102.559 247.284 102.751 247.875 102.954 248.501L102.968 248.543C103.167 249.185 103.366 249.757 103.41 249.8C103.453 249.844 103.479 250.225 103.479 250.65C103.479 251.309 103.444 251.465 103.228 251.907C103.089 252.176 102.846 252.531 102.69 252.696C102.526 252.852 102.17 253.103 101.901 253.233C101.624 253.372 101.303 253.485 101.182 253.485C101.06 253.485 100.948 253.528 100.922 253.571C100.896 253.623 100.02 253.658 98.5637 253.658C97.064 253.658 96.1364 253.623 95.937 253.554C95.7723 253.502 95.4602 253.381 95.2521 253.277C95.0354 253.173 94.706 252.939 94.5152 252.748C94.3159 252.557 94.0644 252.184 93.9517 251.924C93.8391 251.664 93.7177 251.378 93.6743 251.3C93.631 251.213 93.5963 251.066 93.5963 250.971C93.5963 250.875 93.5616 250.78 93.5096 250.754C93.4576 250.728 93.4229 250.633 93.4229 250.537C93.4229 250.442 93.3883 250.294 93.3449 250.216C93.3016 250.13 93.2149 249.887 93.1542 249.67C93.0935 249.454 92.9374 249.063 92.8074 248.803C92.686 248.543 92.4173 248.179 92.2179 248.006C92.0272 247.824 91.6717 247.581 90.9956 247.243H84.8664C78.9194 247.243 78.7113 247.252 78.2519 247.416C77.9918 247.512 77.6624 247.702 77.5237 247.832C77.385 247.962 77.1249 248.248 76.9428 248.483C76.7174 248.754 76.6047 248.977 76.6047 249.15C76.6047 249.289 76.57 249.427 76.518 249.454C76.466 249.48 76.4313 249.592 76.4313 249.714C76.4313 249.835 76.3967 249.948 76.3446 249.974C76.2926 250 76.2579 250.095 76.2579 250.19C76.2579 250.286 76.2233 250.433 76.1799 250.52C76.1366 250.598 76.0152 250.962 75.9025 251.317C75.7898 251.673 75.5991 252.106 75.4604 252.271C75.3304 252.436 75.1483 252.652 75.0616 252.748C74.9662 252.843 74.7408 253.034 74.5588 253.164C74.3681 253.294 74.0473 253.45 73.8306 253.502C73.6052 253.563 72.4609 253.615 71.0564 253.632C69.5133 253.649 68.6377 253.623 68.5857 253.571C68.5424 253.519 68.4123 253.485 68.3083 253.485C68.1956 253.485 67.8922 253.381 67.6235 253.251C67.2767 253.077 67.0166 252.86 66.7565 252.531C66.5485 252.271 66.3404 251.898 66.2884 251.707C66.2277 251.517 66.1497 251.291 66.1063 251.213C66.063 251.127 66.0283 250.867 66.0283 250.624C66.0283 250.39 66.063 250.121 66.1063 250.043C66.1497 249.956 66.2364 249.714 66.2971 249.497C66.3577 249.28 66.4358 249.063 66.4791 249.02C66.5225 248.977 66.5485 248.847 66.5485 248.743C66.5485 248.63 66.5918 248.526 66.6352 248.5C66.6785 248.474 66.7219 248.353 66.7219 248.222C66.7219 248.084 66.7479 247.945 66.7825 247.902C66.8259 247.867 66.9473 247.572 67.0513 247.252C67.164 246.939 67.3027 246.523 67.3634 246.333C67.4241 246.142 67.5368 245.83 67.6148 245.639C67.7015 245.448 67.7622 245.223 67.7622 245.145C67.7622 245.058 67.8055 244.972 67.8488 244.946C67.8922 244.92 67.9355 244.807 67.9355 244.685C67.9355 244.564 67.9789 244.451 68.0222 244.425C68.0656 244.399 68.1089 244.287 68.1089 244.165C68.1089 244.044 68.1523 243.931 68.1956 243.905C68.239 243.879 68.2823 243.767 68.2823 243.645C68.2823 243.524 68.3603 243.264 68.447 243.064C68.5424 242.856 68.6984 242.44 68.8025 242.128C68.8978 241.816 69.0192 241.495 69.0625 241.417C69.1145 241.33 69.1492 241.2 69.1492 241.131C69.1492 241.062 69.1839 240.932 69.2272 240.854C69.2706 240.767 69.3486 240.542 69.4006 240.351C69.4613 240.16 69.548 239.909 69.6 239.787C69.652 239.666 69.7214 239.501 69.7647 239.423C69.8081 239.337 69.8428 239.198 69.8428 239.12C69.8428 239.033 69.9208 238.799 70.0161 238.6C70.1115 238.392 70.1895 238.149 70.1895 238.054C70.1895 237.958 70.2329 237.793 70.2936 237.689C70.3456 237.577 70.4236 237.421 70.4669 237.343C70.5016 237.256 70.5363 237.109 70.5363 237.013C70.5363 236.918 70.5796 236.823 70.623 236.797C70.6663 236.77 70.7097 236.666 70.7097 236.562C70.7097 236.45 70.7357 236.32 70.779 236.276C70.8224 236.233 70.9004 236.016 70.9611 235.8C71.0218 235.583 71.1085 235.34 71.1518 235.262C71.1951 235.175 71.2298 235.028 71.2298 234.933C71.2298 234.837 71.2558 234.742 71.2992 234.725C71.3339 234.707 71.4205 234.491 71.4899 234.239C71.5593 233.988 71.646 233.771 71.6893 233.754C71.724 233.736 71.75 233.598 71.75 233.459C71.75 233.32 71.7933 233.199 71.8367 233.199C71.88 233.199 71.9234 233.095 71.9234 232.965C71.9234 232.826 71.9494 232.687 71.984 232.644C72.0187 232.609 72.1401 232.315 72.2441 231.994C72.3481 231.682 72.4435 231.352 72.4435 231.274C72.4435 231.188 72.4869 231.118 72.5302 231.118C72.5735 231.118 72.6169 231.049 72.6169 230.971C72.6169 230.884 72.6949 230.65 72.7903 230.451C72.8856 230.243 72.9637 230 72.9637 229.905C72.9637 229.809 72.9983 229.653 73.0504 229.558C73.1024 229.462 73.1717 229.306 73.2237 229.211C73.2758 229.116 73.3104 228.96 73.3104 228.864C73.3104 228.769 73.3451 228.673 73.3971 228.647C73.4491 228.621 73.4838 228.517 73.4838 228.413C73.4838 228.301 73.5098 228.179 73.5445 228.136C73.5878 228.101 73.6659 227.919 73.7179 227.746C73.7786 227.573 73.8306 227.364 73.8306 227.286C73.8306 227.2 73.8653 227.061 73.9086 226.983C73.952 226.896 74.03 226.706 74.0907 226.567C74.1513 226.428 74.2294 226.237 74.2727 226.159C74.3161 226.073 74.3507 225.943 74.3507 225.873C74.3507 225.804 74.3854 225.674 74.4288 225.596C74.4721 225.509 74.5848 225.171 74.6888 224.833C74.7929 224.495 74.9142 224.148 74.9489 224.053C74.9923 223.957 75.0789 223.706 75.1396 223.489C75.2003 223.273 75.2783 223.065 75.3217 223.013C75.365 222.969 75.391 222.822 75.391 222.692C75.391 222.553 75.4257 222.449 75.4777 222.449C75.5297 222.449 75.5644 222.38 75.5644 222.302C75.5644 222.215 75.6424 221.981 75.7378 221.781C75.8332 221.573 75.9112 221.339 75.9112 221.261C75.9112 221.175 75.9892 220.941 76.0846 220.741C76.1799 220.533 76.2579 220.29 76.2579 220.195C76.2579 220.1 76.2926 220.004 76.3446 219.978C76.3967 219.952 76.4313 219.848 76.4313 219.744C76.4313 219.632 76.4573 219.51 76.5007 219.458C76.544 219.415 76.622 219.198 76.6827 218.981C76.7434 218.765 76.8301 218.522 76.8735 218.444C76.9168 218.357 76.9515 218.21 76.9515 218.114C76.9515 218.019 76.9862 217.941 77.0382 217.941C77.0902 217.941 77.1249 217.863 77.1249 217.768C77.1335 217.672 77.1682 217.525 77.2029 217.438C77.2462 217.36 77.3676 216.996 77.4716 216.641C77.5757 216.285 77.697 215.912 77.7317 215.817C77.7664 215.722 77.8444 215.505 77.9051 215.34C77.9658 215.176 78.0438 214.959 78.0785 214.863C78.1132 214.768 78.2345 214.508 78.3472 214.274C78.4599 214.049 78.6333 213.771 78.7287 213.658C78.824 213.554 79.0754 213.346 79.2835 213.208Z" stroke="white" stroke-width="3"/>
<defs>
<filter id="filter0_f_5011_807" x="45.2227" y="17.4551" width="79.0615" height="251.748" filterUnits="userSpaceOnUse" color-interpolation-filters="sRGB">
<feFlood flood-opacity="0" result="BackgroundImageFix"/>
<feBlend mode="normal" in="SourceGraphic" in2="BackgroundImageFix" result="shape"/>
<feGaussianBlur stdDeviation="7" result="effect1_foregroundBlur_5011_807"/>
</filter>
<linearGradient id="paint0_linear_5011_807" x1="85.5" y1="0" x2="85.5" y2="303" gradientUnits="userSpaceOnUse">
<stop stop-color="white"/>
<stop offset="1" stop-color="white" stop-opacity="0"/>
</linearGradient>
</defs>
</svg>
