<svg width="20" height="20" viewBox="0 0 20 20" fill="none" xmlns="http://www.w3.org/2000/svg">
<path d="M17.3369 1.8478C16.7634 1.74903 16.1827 1.69819 15.6008 1.6958C13.6155 1.69418 11.6716 2.26346 10.0008 3.3358C8.32577 2.27754 6.38217 1.72223 4.40085 1.7358C3.81897 1.73819 3.23829 1.78903 2.66485 1.8878C2.47701 1.92019 2.30691 2.01857 2.18518 2.16524C2.06345 2.31191 1.99808 2.49722 2.00085 2.6878V12.2878C1.99914 12.4054 2.02335 12.5218 2.07177 12.629C2.12019 12.7361 2.19162 12.8312 2.28099 12.9076C2.37035 12.984 2.47545 13.0397 2.58881 13.0709C2.70217 13.102 2.821 13.1078 2.93685 13.0878C4.08326 12.8893 5.25781 12.9222 6.3913 13.1847C7.52479 13.4471 8.59431 13.9337 9.53685 14.6158L9.63285 14.6718H9.72085C9.80957 14.7088 9.90474 14.7278 10.0008 14.7278C10.097 14.7278 10.1921 14.7088 10.2809 14.6718H10.3688L10.4648 14.6158C11.4008 13.9184 12.4673 13.4161 13.601 13.1385C14.7347 12.8609 15.9126 12.8137 17.0648 12.9998C17.1807 13.0198 17.2995 13.014 17.4129 12.9829C17.5262 12.9517 17.6313 12.896 17.7207 12.8196C17.8101 12.7432 17.8815 12.6481 17.9299 12.541C17.9783 12.4338 18.0026 12.3174 18.0009 12.1998V2.5998C17.9925 2.41753 17.9221 2.24357 17.8014 2.10679C17.6806 1.97002 17.5167 1.87863 17.3369 1.8478ZM9.20085 12.4798C7.72076 11.7012 6.07326 11.2948 4.40085 11.2958C4.13685 11.2958 3.87285 11.2958 3.60085 11.2958V3.2958C3.86729 3.28045 4.1344 3.28045 4.40085 3.2958C6.10756 3.29392 7.77702 3.79476 9.20085 4.7358V12.4798ZM16.4008 11.3278C16.1288 11.3278 15.8649 11.3278 15.6008 11.3278C13.9284 11.3268 12.2809 11.7332 10.8008 12.5118V4.7358C12.2247 3.79476 13.8941 3.29392 15.6008 3.2958C15.8673 3.28045 16.1344 3.28045 16.4008 3.2958V11.3278ZM17.3369 14.6478C16.7634 14.549 16.1827 14.4982 15.6008 14.4958C13.6155 14.4942 11.6716 15.0635 10.0008 16.1358C8.33006 15.0635 6.38616 14.4942 4.40085 14.4958C3.81897 14.4982 3.23829 14.549 2.66485 14.6478C2.56071 14.6643 2.46087 14.7013 2.37106 14.7565C2.28125 14.8118 2.20325 14.8842 2.14154 14.9697C2.07983 15.0552 2.03564 15.1521 2.01149 15.2547C1.98735 15.3574 1.98373 15.4638 2.00085 15.5678C2.0415 15.7756 2.16284 15.9587 2.33828 16.0772C2.51372 16.1956 2.72896 16.2397 2.93685 16.1998C4.08326 16.0013 5.25781 16.0342 6.3913 16.2967C7.52479 16.5591 8.59431 17.0457 9.53685 17.7278C9.67234 17.8243 9.83453 17.8761 10.0008 17.8761C10.1672 17.8761 10.3294 17.8243 10.4648 17.7278C11.4074 17.0457 12.4769 16.5591 13.6104 16.2967C14.7439 16.0342 15.9184 16.0013 17.0648 16.1998C17.2727 16.2397 17.488 16.1956 17.6634 16.0772C17.8389 15.9587 17.9602 15.7756 18.0009 15.5678C18.018 15.4638 18.0144 15.3574 17.9902 15.2547C17.9661 15.1521 17.9219 15.0552 17.8602 14.9697C17.7984 14.8842 17.7204 14.8118 17.6306 14.7565C17.5408 14.7013 17.441 14.6643 17.3369 14.6478Z" fill="white"/>
</svg>
