<svg width="104" height="104" viewBox="0 0 104 104" fill="none" xmlns="http://www.w3.org/2000/svg">
<path d="M86.2765 67.2098H66.6465C65.4972 67.2098 64.395 67.6664 63.5824 68.479C62.7697 69.2917 62.3132 70.3939 62.3132 71.5432C62.3132 72.6924 62.7697 73.7946 63.5824 74.6073C64.395 75.42 65.4972 75.8765 66.6465 75.8765H77.0465C72.2666 80.8717 66.1023 84.3235 59.3455 85.7885C52.5888 87.2536 45.5484 86.6648 39.1289 84.0979C32.7093 81.531 27.2039 77.1033 23.3201 71.3836C19.4362 65.6639 17.3513 58.9135 17.3332 51.9998C17.3332 50.8506 16.8766 49.7484 16.064 48.9357C15.2513 48.1231 14.1491 47.6665 12.9998 47.6665C11.8506 47.6665 10.7484 48.1231 9.93571 48.9357C9.12305 49.7484 8.6665 50.8506 8.6665 51.9998C8.68941 60.462 11.1895 68.7322 15.8581 75.79C20.5268 82.8477 27.1597 88.3841 34.9384 91.7158C42.7171 95.0475 51.301 96.0288 59.6309 94.5386C67.9608 93.0484 75.6721 89.1518 81.8132 83.3298V90.9998C81.8132 92.1491 82.2697 93.2513 83.0824 94.064C83.895 94.8766 84.9972 95.3332 86.1465 95.3332C87.2958 95.3332 88.398 94.8766 89.2106 94.064C90.0233 93.2513 90.4798 92.1491 90.4798 90.9998V71.4998C90.4691 70.3803 90.0255 69.3083 89.2419 68.5085C88.4584 67.7088 87.3956 67.2434 86.2765 67.2098ZM51.9998 8.6665C40.8908 8.69819 30.2183 12.9951 22.1865 20.6698V12.9998C22.1865 11.8506 21.73 10.7484 20.9173 9.93571C20.1046 9.12305 19.0024 8.6665 17.8532 8.6665C16.7039 8.6665 15.6017 9.12305 14.789 9.93571C13.9764 10.7484 13.5198 11.8506 13.5198 12.9998V32.4998C13.5198 33.6491 13.9764 34.7513 14.789 35.564C15.6017 36.3766 16.7039 36.8332 17.8532 36.8332H37.3532C38.5024 36.8332 39.6046 36.3766 40.4173 35.564C41.23 34.7513 41.6865 33.6491 41.6865 32.4998C41.6865 31.3506 41.23 30.2484 40.4173 29.4357C39.6046 28.6231 38.5024 28.1665 37.3532 28.1665H26.9532C31.7305 23.1739 37.8909 19.723 44.6436 18.2566C51.3962 16.7903 58.4331 17.3754 64.8508 19.9369C71.2685 22.4984 76.7744 26.9194 80.6615 32.6325C84.5487 38.3455 86.6398 45.0898 86.6665 51.9998C86.6665 53.1491 87.123 54.2513 87.9357 55.064C88.7484 55.8766 89.8506 56.3332 90.9998 56.3332C92.1491 56.3332 93.2513 55.8766 94.064 55.064C94.8766 54.2513 95.3332 53.1491 95.3332 51.9998C95.3332 46.3092 94.2123 40.6743 92.0346 35.4169C89.8569 30.1594 86.665 25.3824 82.6411 21.3585C78.6173 17.3347 73.8402 14.1428 68.5828 11.9651C63.3253 9.78735 57.6905 8.6665 51.9998 8.6665Z" fill="white"/>
</svg>
